<svg xmlns="http://www.w3.org/2000/svg" xmlns:inkscape="http://www.inkscape.org/namespaces/inkscape" viewBox="3.32 -37.64 30.1 39.77" width="30.1" height="39.77"><title>Gabriela Barros — numero-1 (morango)</title><g id="numero-1" inkscape:label="numero-1" inkscape:groupmode="layer"><path d="M31.29 -2.99Q31.29 -1.76 31.1 -1.11Q30.91 -0.47 30.53 -0.23Q30.15 0 29.44 0H8Q7.29 0 6.91 -0.23Q6.53 -0.47 6.34 -1.11Q6.15 -1.76 6.15 -2.99Q6.15 -4.22 6.34 -4.86Q6.53 -5.51 6.91 -5.76Q7.29 -6.01 8 -6.01H15.21V-25.75L9.08 -22.27Q8.55 -21.97 8.14 -21.97Q7.59 -21.97 7.08 -22.5Q6.56 -23.03 6.04 -24.17Q5.45 -25.46 5.45 -26.31Q5.45 -26.92 5.73 -27.33Q6.01 -27.74 6.59 -28.07L18.96 -35.04Q19.78 -35.51 20.62 -35.51Q21.47 -35.51 22 -35.04Q22.53 -34.57 22.53 -33.63V-6.01H29.44Q30.15 -6.01 30.53 -5.76Q30.91 -5.51 31.1 -4.86Q31.29 -4.22 31.29 -2.99Z" fill="#C8423E"/></g></svg>