<svg xmlns="http://www.w3.org/2000/svg" xmlns:inkscape="http://www.inkscape.org/namespaces/inkscape" xmlns:xlink="http://www.w3.org/1999/xlink" viewBox="-5.44 -5.44 79.51 101.47" width="79.51" height="101.47">
<title>Gabriela Barros — numero-2 (traço editável, preto)</title>
<g id="manuscrito" inkscape:label="numero-2" inkscape:groupmode="layer">
<g id="manuscrito-numero-2" inkscape:label="numero-2 (traço editável)" transform="matrix(1,0,0,1,0,0)" fill="none" stroke="#000000" stroke-width="6" stroke-linecap="round" stroke-linejoin="round"><path d="M12.70,18.45 C13.11,18.28 14.47,17.77 15.16,17.47 C15.85,17.16 16.24,16.95 16.83,16.63 C17.43,16.31 18.08,15.93 18.73,15.54 C19.38,15.14 20.04,14.71 20.71,14.28 C21.37,13.86 22.04,13.42 22.70,12.99 C23.37,12.57 24.04,12.15 24.70,11.74 C25.37,11.33 26.04,10.92 26.70,10.53 C27.37,10.13 28.04,9.75 28.70,9.37 C29.37,8.99 30.04,8.62 30.70,8.26 C31.37,7.90 32.04,7.53 32.70,7.19 C33.37,6.84 34.04,6.49 34.70,6.18 C35.37,5.87 36.04,5.58 36.70,5.32 C37.37,5.06 38.04,4.83 38.70,4.62 C39.37,4.40 40.04,4.21 40.70,4.03 C41.37,3.84 42.04,3.67 42.70,3.52 C43.37,3.38 44.04,3.24 44.70,3.15 C45.37,3.07 46.04,3.00 46.70,3.00 C47.37,3.00 48.04,3.04 48.69,3.16 C49.34,3.28 50.00,3.45 50.63,3.72 C51.25,3.98 51.87,4.33 52.43,4.75 C52.99,5.17 53.53,5.69 53.98,6.24 C54.44,6.78 54.85,7.41 55.18,8.03 C55.51,8.65 55.77,9.31 55.98,9.96 C56.19,10.62 56.32,11.29 56.42,11.95 C56.53,12.61 56.57,13.28 56.61,13.95 C56.64,14.61 56.64,15.28 56.63,15.95 C56.61,16.61 56.57,17.28 56.51,17.95 C56.45,18.61 56.36,19.28 56.24,19.95 C56.13,20.61 55.98,21.28 55.83,21.95 C55.68,22.61 55.51,23.28 55.34,23.95 C55.17,24.61 55.01,25.28 54.84,25.95 C54.67,26.61 54.51,27.28 54.33,27.95 C54.15,28.61 53.97,29.28 53.76,29.95 C53.56,30.61 53.35,31.28 53.12,31.95 C52.88,32.61 52.63,33.28 52.38,33.95 C52.12,34.61 51.85,35.28 51.58,35.95 C51.30,36.61 51.02,37.28 50.73,37.95 C50.44,38.61 50.14,39.28 49.83,39.95 C49.52,40.61 49.21,41.28 48.88,41.95 C48.56,42.61 48.24,43.28 47.90,43.95 C47.56,44.61 47.23,45.28 46.87,45.95 C46.52,46.61 46.16,47.28 45.78,47.95 C45.41,48.61 45.03,49.28 44.64,49.95 C44.26,50.61 43.87,51.28 43.48,51.95 C43.09,52.61 42.70,53.28 42.31,53.95 C41.92,54.61 41.52,55.28 41.12,55.95 C40.72,56.61 40.31,57.28 39.91,57.95 C39.50,58.61 39.10,59.28 38.69,59.95 C38.28,60.61 37.88,61.28 37.45,61.95 C37.03,62.61 36.60,63.28 36.15,63.94 C35.70,64.60 35.23,65.26 34.75,65.91 C34.26,66.56 33.76,67.21 33.25,67.86 C32.73,68.50 32.21,69.14 31.68,69.78 C31.14,70.42 30.60,71.06 30.03,71.69 C29.46,72.32 28.88,72.95 28.27,73.55 C27.67,74.14 27.04,74.73 26.40,75.25 C25.76,75.78 25.10,76.26 24.44,76.69 C23.78,77.13 23.12,77.50 22.45,77.85 C21.79,78.21 21.12,78.54 20.45,78.84 C19.79,79.14 19.12,79.44 18.45,79.66 C17.79,79.89 17.12,80.09 16.45,80.19 C15.79,80.28 15.12,80.31 14.46,80.26 C13.79,80.20 13.12,80.06 12.46,79.86 C11.81,79.65 11.14,79.37 10.50,79.03 C9.86,78.68 9.22,78.27 8.62,77.80 C8.02,77.33 7.44,76.78 6.91,76.21 C6.39,75.64 5.90,75.01 5.48,74.38 C5.06,73.76 4.70,73.09 4.40,72.44 C4.10,71.78 3.86,71.11 3.67,70.44 C3.48,69.78 3.35,69.11 3.25,68.45 C3.14,67.78 3.09,67.11 3.04,66.45 C3.00,65.78 2.99,65.11 3.00,64.45 C3.01,63.78 3.03,63.11 3.09,62.45 C3.15,61.79 3.22,61.12 3.36,60.48 C3.50,59.85 3.67,59.20 3.91,58.63 C4.15,58.07 4.46,57.51 4.82,57.11 C5.18,56.70 5.63,56.37 6.08,56.22 C6.54,56.07 7.06,56.08 7.55,56.23 C8.03,56.37 8.53,56.71 8.98,57.12 C9.42,57.52 9.83,58.08 10.21,58.64 C10.60,59.20 10.93,59.85 11.27,60.49 C11.60,61.13 11.91,61.80 12.23,62.45 C12.55,63.11 12.86,63.78 13.19,64.45 C13.53,65.11 13.87,65.78 14.23,66.45 C14.59,67.11 14.97,67.78 15.37,68.45 C15.76,69.11 16.19,69.78 16.60,70.44 C17.01,71.10 17.45,71.77 17.85,72.41 C18.25,73.05 18.65,73.69 18.99,74.27 C19.33,74.84 19.57,75.24 19.89,75.85 C20.22,76.47 20.78,77.60 20.95,77.95"/><path d="M64.95,62.70 C65.03,63.11 65.32,64.46 65.42,65.15 C65.52,65.84 65.54,66.23 65.57,66.82 C65.61,67.42 65.63,68.08 65.63,68.72 C65.63,69.37 65.61,70.04 65.56,70.70 C65.51,71.36 65.44,72.03 65.33,72.70 C65.23,73.36 65.09,74.03 64.92,74.70 C64.75,75.36 64.56,76.03 64.32,76.69 C64.09,77.36 63.83,78.03 63.52,78.68 C63.21,79.34 62.86,79.99 62.44,80.62 C62.02,81.24 61.55,81.86 61.03,82.42 C60.51,82.97 59.92,83.50 59.32,83.95 C58.72,84.41 58.07,84.81 57.42,85.16 C56.78,85.51 56.11,85.79 55.45,86.04 C54.79,86.30 54.12,86.51 53.45,86.69 C52.79,86.87 52.12,87.01 51.45,87.13 C50.79,87.25 50.12,87.34 49.45,87.41 C48.79,87.48 48.12,87.53 47.45,87.56 C46.79,87.59 46.12,87.61 45.45,87.60 C44.79,87.59 44.12,87.57 43.45,87.51 C42.79,87.45 42.12,87.37 41.45,87.26 C40.79,87.15 40.12,87.01 39.45,86.86 C38.79,86.70 38.12,86.52 37.45,86.32 C36.79,86.12 36.12,85.91 35.45,85.67 C34.79,85.44 34.12,85.18 33.46,84.91 C32.79,84.63 32.12,84.33 31.47,84.00 C30.81,83.67 30.15,83.31 29.52,82.93 C28.89,82.55 28.26,82.12 27.70,81.71 C27.15,81.29 26.61,80.83 26.16,80.42 C25.72,80.02 25.42,79.70 25.05,79.29 C24.68,78.88 24.14,78.17 23.95,77.95"/></g>
</g>
</svg>